{"title":"Die Another Day(2002)MPEG-4[DaScubaDude]","uid":14673645,"size":1325462983,"categoryP":"video","categoryS":"movies","magnet":"?xt=urn:btih:b1c74445b9950be916d3e2cb629736599dcdf741&amp;dn=Die+Another+Day%282002%29MPEG-4%5BDaScubaDude%5D&amp;tr=udp%3A%2F%2Ftracker.leechers-paradise.org%3A6969&amp;tr=udp%3A%2F%2Fzer0day.ch%3A1337&amp;tr=udp%3A%2F%2Fopen.demonii.com%3A1337&amp;tr=udp%3A%2F%2Ftracker.coppersurfer.tk%3A6969&amp;tr=udp%3A%2F%2Fexodus.desync.com%3A6969","seeders":1,"leechers":0,"uploader":"dascuba","files":1,"time":1463905225,"description":"Die Another Day (2002)\r\nPG-13 | 2h 13min | Action, Adventure, Thriller | 22 November 2002 (USA)\r\nJames Bond is sent to investigate the connection between a North Korean terrorist and a diamond mogul who is funding the development of an international space weapon.\r\nDirector: Lee Tamahori\r\nWriters: Ian Fleming (characters), Neal Purvis | \r\nStars: Pierce Brosnan, Halle Berry, Rosamund Pike | \r\n\r\nGeneral\r\nComplete name                            : DieAnotherDayDIE_ANOTHER_DAY_Title12.mp4\r\nFormat                                   : MPEG-4\r\nFormat profile                           : Base Media\r\nCodec ID                                 : isom (isom/iso2/avc1/mp41)\r\nFile size                                : 1.23 GiB\r\nDuration                                 : 2h 12mn\r\nOverall bit rate                         : 1 336 Kbps\r\nMovie name                               : DIE_ANOTHER_DAY\r\nGenre                                    : Action\r\nWriting application                      : Lavf54.6.100\r\n\r\nVideo\r\nID                                       : 1\r\nFormat                                   : AVC\r\nFormat/Info                              : Advanced Video Codec\r\nFormat profile                           :   \r\nFormat settings, CABAC                   : No\r\nFormat settings, ReFrames                : 6 frames\r\nCodec ID                                 : avc1\r\nCodec ID/Info                            : Advanced Video Coding\r\nDuration                                 : 2h 12mn\r\nBit rate                                 : 1 202 Kbps\r\nWidth                                    : 720 pixels\r\nHeight                                   : 404 pixels\r\nDisplay aspect ratio                     : 16:9\r\nFrame rate mode                          : Constant\r\nFrame rate                               : 29.970 (30000/1001) fps\r\nColor space                              : YUV\r\nChroma subsampling                       : 4:2:0\r\nBit depth                                : 8 bits\r\nScan type                                : Progressive\r\nBits/(Pixel*Frame)                       : 0.138\r\nStream size                              : 1.11 GiB (90%)\r\n\r\nAudio\r\nID                                       : 2\r\nFormat                                   : AAC\r\nFormat/Info                              : Advanced Audio Codec\r\nFormat profile                           : LC\r\nCodec ID                                 : 40\r\nDuration                                 : 2h 12mn\r\nBit rate mode                            : Constant\r\nBit rate                                 : 128 Kbps\r\nChannel(s)                               : 2 channels\r\nChannel positions                        : Front: L R\r\nSampling rate                            : 44.1 KHz\r\nFrame rate                               : 43.066 fps (1024 spf)\r\nCompression mode                         : Lossy\r\nStream size                              : 121 MiB (10%)\r\nDefault                                  : Yes\r\nAlternate group                          : 1","torrent":{"xt":"urn:btih:b1c74445b9950be916d3e2cb629736599dcdf741","amp;dn":"Die+Another+Day%282002%29MPEG-4%5BDaScubaDude%5D","amp;tr":["udp%3A%2F%2Ftracker.leechers-paradise.org%3A6969","udp%3A%2F%2Fzer0day.ch%3A1337","udp%3A%2F%2Fopen.demonii.com%3A1337","udp%3A%2F%2Ftracker.coppersurfer.tk%3A6969","udp%3A%2F%2Fexodus.desync.com%3A6969"],"infoHash":"b1c74445b9950be916d3e2cb629736599dcdf741","infoHashBuffer":{"type":"Buffer","data":[177,199,68,69,185,149,11,233,22,211,226,203,98,151,54,89,157,205,247,65]},"announce":[],"urlList":[]}}